<svg width="47" height="24" viewBox="0 0 47 24" fill="none" xmlns="http://www.w3.org/2000/svg">
<rect opacity="0.3" width="47" height="24" rx="12" fill="black"/>
<path d="M13.5662 16.482V7.704L14.2242 8.04L11.5222 9.762V8.656L14.0702 7.032H14.7282V16.482H13.5662ZM11.3682 17V16.034H16.9262V17H11.3682ZM18.8667 15.558H20.3087V17H18.8667V15.558ZM18.8667 10.112H20.3087V11.568H18.8667V10.112ZM25.5649 17.098C24.9583 17.098 24.3609 16.9907 23.7729 16.776C23.1849 16.552 22.6903 16.2487 22.2889 15.866L22.7229 14.984C23.1803 15.3573 23.6423 15.642 24.1089 15.838C24.5849 16.034 25.0703 16.132 25.5649 16.132C26.2649 16.132 26.8109 15.936 27.2029 15.544C27.6043 15.1427 27.8049 14.6013 27.8049 13.92C27.8049 13.4813 27.7163 13.0987 27.5389 12.772C27.3616 12.436 27.1096 12.1747 26.7829 11.988C26.4656 11.8013 26.0876 11.708 25.6489 11.708C25.1729 11.708 24.7436 11.806 24.3609 12.002C23.9876 12.1887 23.6563 12.478 23.3669 12.87H22.5689V7.032H28.5469V7.984H23.7169V12.016L23.3529 11.974C23.6236 11.582 23.9689 11.2787 24.3889 11.064C24.8183 10.8493 25.2989 10.742 25.8309 10.742C26.4656 10.742 27.0163 10.8773 27.4829 11.148C27.9496 11.4093 28.3089 11.778 28.5609 12.254C28.8129 12.73 28.9389 13.2807 28.9389 13.906C28.9389 14.5313 28.7989 15.0867 28.5189 15.572C28.2483 16.048 27.8609 16.4213 27.3569 16.692C26.8529 16.9627 26.2556 17.098 25.5649 17.098ZM34.1275 17.112C32.9235 17.112 31.9948 16.6967 31.3415 15.866C30.6881 15.026 30.3615 13.8267 30.3615 12.268C30.3615 11.1387 30.5108 10.1773 30.8095 9.384C31.1175 8.58133 31.5561 7.97 32.1255 7.55C32.7041 7.13 33.3948 6.92 34.1975 6.92C34.7761 6.92 35.3361 7.02733 35.8775 7.242C36.4188 7.44733 36.8995 7.75067 37.3195 8.152L36.8855 9.034C36.4188 8.63267 35.9661 8.34333 35.5275 8.166C35.0981 7.97933 34.6641 7.886 34.2255 7.886C33.3668 7.886 32.6995 8.26867 32.2235 9.034C31.7475 9.79 31.5095 10.8633 31.5095 12.254V13.458L31.3415 13.08C31.4161 12.604 31.5888 12.1933 31.8595 11.848C32.1301 11.4933 32.4661 11.2227 32.8675 11.036C33.2781 10.84 33.7308 10.742 34.2255 10.742C34.8415 10.742 35.3828 10.8773 35.8495 11.148C36.3161 11.4093 36.6801 11.778 36.9415 12.254C37.2028 12.73 37.3335 13.2807 37.3335 13.906C37.3335 14.522 37.1935 15.0727 36.9135 15.558C36.6428 16.0433 36.2648 16.426 35.7795 16.706C35.3035 16.9767 34.7528 17.112 34.1275 17.112ZM34.0715 16.146C34.7061 16.146 35.2195 15.9453 35.6115 15.544C36.0035 15.1333 36.1995 14.592 36.1995 13.92C36.1995 13.2573 36.0035 12.7253 35.6115 12.324C35.2195 11.9133 34.7015 11.708 34.0575 11.708C33.6281 11.708 33.2455 11.806 32.9095 12.002C32.5735 12.1887 32.3121 12.45 32.1255 12.786C31.9388 13.1127 31.8455 13.4907 31.8455 13.92C31.8455 14.368 31.9388 14.76 32.1255 15.096C32.3121 15.4227 32.5735 15.6793 32.9095 15.866C33.2455 16.0527 33.6328 16.146 34.0715 16.146Z" fill="white"/>
</svg>
