<svg width="47" height="24" viewBox="0 0 47 24" fill="none" xmlns="http://www.w3.org/2000/svg">
<rect opacity="0.3" width="47" height="24" rx="12" fill="black"/>
<path d="M12.6782 17.098C12.0342 17.098 11.4135 16.9907 10.8162 16.776C10.2282 16.5613 9.72884 16.258 9.31817 15.866L9.76617 14.984C10.2142 15.3667 10.6762 15.656 11.1522 15.852C11.6282 16.0387 12.1275 16.132 12.6502 16.132C13.3595 16.132 13.8962 15.9733 14.2602 15.656C14.6335 15.3387 14.8202 14.872 14.8202 14.256C14.8202 13.64 14.6288 13.1827 14.2462 12.884C13.8635 12.576 13.2895 12.422 12.5242 12.422H11.3762V11.456H12.3002C13.0375 11.456 13.6022 11.2927 13.9942 10.966C14.3862 10.6393 14.5822 10.1727 14.5822 9.566C14.5822 9.02467 14.4188 8.60933 14.0922 8.32C13.7748 8.03067 13.3222 7.886 12.7342 7.886C12.2395 7.886 11.7588 7.984 11.2922 8.18C10.8255 8.36667 10.3635 8.65133 9.90617 9.034L9.47217 8.152C9.87351 7.76933 10.3682 7.47067 10.9562 7.256C11.5442 7.032 12.1508 6.92 12.7762 6.92C13.3735 6.92 13.8962 7.02733 14.3442 7.242C14.7922 7.44733 15.1328 7.74133 15.3662 8.124C15.6088 8.50667 15.7302 8.95933 15.7302 9.482C15.7302 10.098 15.5668 10.6253 15.2402 11.064C14.9228 11.4933 14.4842 11.7873 13.9242 11.946L13.8822 11.806C14.5542 11.946 15.0675 12.2307 15.4222 12.66C15.7768 13.0893 15.9542 13.6353 15.9542 14.298C15.9542 15.166 15.6602 15.852 15.0722 16.356C14.4842 16.8507 13.6862 17.098 12.6782 17.098ZM17.8667 15.558H19.3087V17H17.8667V15.558ZM17.8667 10.112H19.3087V11.568H17.8667V10.112ZM25.4889 17V8.474H25.8389L21.6949 14.452L21.7089 13.878H28.1489V14.83H20.8969V13.962L25.6989 7.032H26.6369V17H25.4889ZM32.8055 17.112C31.6668 17.112 30.7988 16.6827 30.2015 15.824C29.6135 14.956 29.3195 13.6867 29.3195 12.016C29.3195 10.3453 29.6135 9.08067 30.2015 8.222C30.7895 7.354 31.6575 6.92 32.8055 6.92C33.9535 6.92 34.8215 7.354 35.4095 8.222C35.9975 9.08067 36.2915 10.3407 36.2915 12.002C36.2915 13.6727 35.9928 14.942 35.3955 15.81C34.8075 16.678 33.9441 17.112 32.8055 17.112ZM32.8055 16.146C33.5988 16.146 34.1821 15.81 34.5555 15.138C34.9381 14.466 35.1295 13.4207 35.1295 12.002C35.1295 10.5833 34.9381 9.54733 34.5555 8.894C34.1821 8.23133 33.5988 7.9 32.8055 7.9C32.0121 7.9 31.4241 8.23133 31.0415 8.894C30.6681 9.55667 30.4815 10.5927 30.4815 12.002C30.4815 13.4207 30.6681 14.466 31.0415 15.138C31.4241 15.81 32.0121 16.146 32.8055 16.146Z" fill="white"/>
</svg>
