<svg width="47" height="24" viewBox="0 0 47 24" fill="none" xmlns="http://www.w3.org/2000/svg">
<rect opacity="0.3" width="47" height="24" rx="12" fill="black"/>
<path d="M9.73817 17V16.132L13.2242 12.268C13.6908 11.7453 14.0315 11.274 14.2462 10.854C14.4608 10.434 14.5682 10.014 14.5682 9.594C14.5682 9.04333 14.4095 8.62333 14.0922 8.334C13.7748 8.03533 13.3222 7.886 12.7342 7.886C12.2488 7.886 11.7728 7.984 11.3062 8.18C10.8395 8.36667 10.3728 8.65133 9.90617 9.034L9.47217 8.152C9.86417 7.77867 10.3588 7.48 10.9562 7.256C11.5535 7.032 12.1555 6.92 12.7622 6.92C13.3688 6.92 13.8915 7.02733 14.3302 7.242C14.7782 7.44733 15.1235 7.746 15.3662 8.138C15.6088 8.53 15.7302 8.99667 15.7302 9.538C15.7302 10.1073 15.5995 10.658 15.3382 11.19C15.0862 11.7127 14.6615 12.3007 14.0642 12.954L10.7042 16.594L10.6202 16.034H16.1502V17H9.73817ZM17.8667 15.558H19.3087V17H17.8667V15.558ZM17.8667 10.112H19.3087V11.568H17.8667V10.112ZM24.2009 16.482V7.704L24.8589 8.04L22.1569 9.762V8.656L24.7049 7.032H25.3629V16.482H24.2009ZM22.0029 17V16.034H27.5609V17H22.0029ZM32.4975 6.92C33.7015 6.92 34.6301 7.34 35.2835 8.18C35.9368 9.01067 36.2635 10.2053 36.2635 11.764C36.2635 12.8933 36.1095 13.8593 35.8015 14.662C35.5028 15.4553 35.0641 16.062 34.4855 16.482C33.9161 16.902 33.2255 17.112 32.4135 17.112C31.8441 17.112 31.2841 17.0093 30.7335 16.804C30.1921 16.5893 29.7115 16.2813 29.2915 15.88L29.7395 14.998C30.2155 15.3993 30.6681 15.6933 31.0975 15.88C31.5268 16.0573 31.9608 16.146 32.3995 16.146C33.2581 16.146 33.9208 15.768 34.3875 15.012C34.8635 14.2467 35.1015 13.1687 35.1015 11.778V10.574L35.2835 10.938C35.2088 11.4233 35.0361 11.8433 34.7655 12.198C34.4948 12.5433 34.1541 12.814 33.7435 13.01C33.3328 13.1967 32.8801 13.29 32.3855 13.29C31.7788 13.29 31.2421 13.1593 30.7755 12.898C30.3088 12.6273 29.9448 12.254 29.6835 11.778C29.4221 11.302 29.2915 10.7513 29.2915 10.126C29.2915 9.51 29.4268 8.95933 29.6975 8.474C29.9775 7.98867 30.3601 7.61067 30.8455 7.34C31.3308 7.06 31.8815 6.92 32.4975 6.92ZM32.5535 7.886C31.9095 7.886 31.3915 8.09133 30.9995 8.502C30.6168 8.90333 30.4255 9.44 30.4255 10.112C30.4255 10.7747 30.6215 11.3113 31.0135 11.722C31.4055 12.1233 31.9235 12.324 32.5675 12.324C32.9968 12.324 33.3795 12.2307 33.7155 12.044C34.0515 11.848 34.3128 11.5867 34.4995 11.26C34.6861 10.924 34.7795 10.5413 34.7795 10.112C34.7795 9.664 34.6861 9.27667 34.4995 8.95C34.3128 8.614 34.0515 8.35267 33.7155 8.166C33.3795 7.97933 32.9921 7.886 32.5535 7.886Z" fill="white"/>
</svg>
