<svg width="47" height="24" viewBox="0 0 47 24" fill="none" xmlns="http://www.w3.org/2000/svg">
<rect opacity="0.3" width="47" height="24" rx="12" fill="black"/>
<path d="M12.4682 6.92C13.6722 6.92 14.6008 7.34 15.2542 8.18C15.9075 9.01067 16.2342 10.2053 16.2342 11.764C16.2342 12.8933 16.0802 13.8593 15.7722 14.662C15.4735 15.4553 15.0348 16.062 14.4562 16.482C13.8868 16.902 13.1962 17.112 12.3842 17.112C11.8148 17.112 11.2548 17.0093 10.7042 16.804C10.1628 16.5893 9.68217 16.2813 9.26217 15.88L9.71017 14.998C10.1862 15.3993 10.6388 15.6933 11.0682 15.88C11.4975 16.0573 11.9315 16.146 12.3702 16.146C13.2288 16.146 13.8915 15.768 14.3582 15.012C14.8342 14.2467 15.0722 13.1687 15.0722 11.778V10.574L15.2542 10.938C15.1795 11.4233 15.0068 11.8433 14.7362 12.198C14.4655 12.5433 14.1248 12.814 13.7142 13.01C13.3035 13.1967 12.8508 13.29 12.3562 13.29C11.7495 13.29 11.2128 13.1593 10.7462 12.898C10.2795 12.6273 9.91551 12.254 9.65417 11.778C9.39284 11.302 9.26217 10.7513 9.26217 10.126C9.26217 9.51 9.39751 8.95933 9.66817 8.474C9.94817 7.98867 10.3308 7.61067 10.8162 7.34C11.3015 7.06 11.8522 6.92 12.4682 6.92ZM12.5242 7.886C11.8802 7.886 11.3622 8.09133 10.9702 8.502C10.5875 8.90333 10.3962 9.44 10.3962 10.112C10.3962 10.7747 10.5922 11.3113 10.9842 11.722C11.3762 12.1233 11.8942 12.324 12.5382 12.324C12.9675 12.324 13.3502 12.2307 13.6862 12.044C14.0222 11.848 14.2835 11.5867 14.4702 11.26C14.6568 10.924 14.7502 10.5413 14.7502 10.112C14.7502 9.664 14.6568 9.27667 14.4702 8.95C14.2835 8.614 14.0222 8.35267 13.6862 8.166C13.3502 7.97933 12.9628 7.886 12.5242 7.886ZM17.8667 15.558H19.3087V17H17.8667V15.558ZM17.8667 10.112H19.3087V11.568H17.8667V10.112ZM24.4109 17.112C23.2723 17.112 22.4043 16.6827 21.8069 15.824C21.2189 14.956 20.9249 13.6867 20.9249 12.016C20.9249 10.3453 21.2189 9.08067 21.8069 8.222C22.3949 7.354 23.2629 6.92 24.4109 6.92C25.5589 6.92 26.4269 7.354 27.0149 8.222C27.6029 9.08067 27.8969 10.3407 27.8969 12.002C27.8969 13.6727 27.5983 14.942 27.0009 15.81C26.4129 16.678 25.5496 17.112 24.4109 17.112ZM24.4109 16.146C25.2043 16.146 25.7876 15.81 26.1609 15.138C26.5436 14.466 26.7349 13.4207 26.7349 12.002C26.7349 10.5833 26.5436 9.54733 26.1609 8.894C25.7876 8.23133 25.2043 7.9 24.4109 7.9C23.6176 7.9 23.0296 8.23133 22.6469 8.894C22.2736 9.55667 22.0869 10.5927 22.0869 12.002C22.0869 13.4207 22.2736 14.466 22.6469 15.138C23.0296 15.81 23.6176 16.146 24.4109 16.146ZM32.9595 17.098C32.3528 17.098 31.7555 16.9907 31.1675 16.776C30.5795 16.552 30.0848 16.2487 29.6835 15.866L30.1175 14.984C30.5748 15.3573 31.0368 15.642 31.5035 15.838C31.9795 16.034 32.4648 16.132 32.9595 16.132C33.6595 16.132 34.2055 15.936 34.5975 15.544C34.9988 15.1427 35.1995 14.6013 35.1995 13.92C35.1995 13.4813 35.1108 13.0987 34.9335 12.772C34.7561 12.436 34.5041 12.1747 34.1775 11.988C33.8601 11.8013 33.4821 11.708 33.0435 11.708C32.5675 11.708 32.1381 11.806 31.7555 12.002C31.3821 12.1887 31.0508 12.478 30.7615 12.87H29.9635V7.032H35.9415V7.984H31.1115V12.016L30.7475 11.974C31.0181 11.582 31.3635 11.2787 31.7835 11.064C32.2128 10.8493 32.6935 10.742 33.2255 10.742C33.8601 10.742 34.4108 10.8773 34.8775 11.148C35.3441 11.4093 35.7035 11.778 35.9555 12.254C36.2075 12.73 36.3335 13.2807 36.3335 13.906C36.3335 14.5313 36.1935 15.0867 35.9135 15.572C35.6428 16.048 35.2555 16.4213 34.7515 16.692C34.2475 16.9627 33.6501 17.098 32.9595 17.098Z" fill="white"/>
</svg>
