<svg width="47" height="24" viewBox="0 0 47 24" fill="none" xmlns="http://www.w3.org/2000/svg">
<rect opacity="0.3" width="47" height="24" rx="12" fill="black"/>
<path d="M11.3902 17H10.1582L15.0442 7.536L15.1422 7.998H9.48617V7.032H16.0662V7.886L11.3902 17ZM17.8667 15.558H19.3087V17H17.8667V15.558ZM17.8667 10.112H19.3087V11.568H17.8667V10.112ZM24.3129 17.098C23.6689 17.098 23.0483 16.9907 22.4509 16.776C21.8629 16.5613 21.3636 16.258 20.9529 15.866L21.4009 14.984C21.8489 15.3667 22.3109 15.656 22.7869 15.852C23.2629 16.0387 23.7623 16.132 24.2849 16.132C24.9943 16.132 25.5309 15.9733 25.8949 15.656C26.2683 15.3387 26.4549 14.872 26.4549 14.256C26.4549 13.64 26.2636 13.1827 25.8809 12.884C25.4983 12.576 24.9243 12.422 24.1589 12.422H23.0109V11.456H23.9349C24.6723 11.456 25.2369 11.2927 25.6289 10.966C26.0209 10.6393 26.2169 10.1727 26.2169 9.566C26.2169 9.02467 26.0536 8.60933 25.7269 8.32C25.4096 8.03067 24.9569 7.886 24.3689 7.886C23.8743 7.886 23.3936 7.984 22.9269 8.18C22.4603 8.36667 21.9983 8.65133 21.5409 9.034L21.1069 8.152C21.5083 7.76933 22.0029 7.47067 22.5909 7.256C23.1789 7.032 23.7856 6.92 24.4109 6.92C25.0083 6.92 25.5309 7.02733 25.9789 7.242C26.4269 7.44733 26.7676 7.74133 27.0009 8.124C27.2436 8.50667 27.3649 8.95933 27.3649 9.482C27.3649 10.098 27.2016 10.6253 26.8749 11.064C26.5576 11.4933 26.1189 11.7873 25.5589 11.946L25.5169 11.806C26.1889 11.946 26.7023 12.2307 27.0569 12.66C27.4116 13.0893 27.5889 13.6353 27.5889 14.298C27.5889 15.166 27.2949 15.852 26.7069 16.356C26.1189 16.8507 25.3209 17.098 24.3129 17.098ZM33.1275 17.112C31.9235 17.112 30.9948 16.6967 30.3415 15.866C29.6881 15.026 29.3615 13.8267 29.3615 12.268C29.3615 11.1387 29.5108 10.1773 29.8095 9.384C30.1175 8.58133 30.5561 7.97 31.1255 7.55C31.7041 7.13 32.3948 6.92 33.1975 6.92C33.7761 6.92 34.3361 7.02733 34.8775 7.242C35.4188 7.44733 35.8995 7.75067 36.3195 8.152L35.8855 9.034C35.4188 8.63267 34.9661 8.34333 34.5275 8.166C34.0981 7.97933 33.6641 7.886 33.2255 7.886C32.3668 7.886 31.6995 8.26867 31.2235 9.034C30.7475 9.79 30.5095 10.8633 30.5095 12.254V13.458L30.3415 13.08C30.4161 12.604 30.5888 12.1933 30.8595 11.848C31.1301 11.4933 31.4661 11.2227 31.8675 11.036C32.2781 10.84 32.7308 10.742 33.2255 10.742C33.8415 10.742 34.3828 10.8773 34.8495 11.148C35.3161 11.4093 35.6801 11.778 35.9415 12.254C36.2028 12.73 36.3335 13.2807 36.3335 13.906C36.3335 14.522 36.1935 15.0727 35.9135 15.558C35.6428 16.0433 35.2648 16.426 34.7795 16.706C34.3035 16.9767 33.7528 17.112 33.1275 17.112ZM33.0715 16.146C33.7061 16.146 34.2195 15.9453 34.6115 15.544C35.0035 15.1333 35.1995 14.592 35.1995 13.92C35.1995 13.2573 35.0035 12.7253 34.6115 12.324C34.2195 11.9133 33.7015 11.708 33.0575 11.708C32.6281 11.708 32.2455 11.806 31.9095 12.002C31.5735 12.1887 31.3121 12.45 31.1255 12.786C30.9388 13.1127 30.8455 13.4907 30.8455 13.92C30.8455 14.368 30.9388 14.76 31.1255 15.096C31.3121 15.4227 31.5735 15.6793 31.9095 15.866C32.2455 16.0527 32.6328 16.146 33.0715 16.146Z" fill="white"/>
</svg>
