<svg width="47" height="24" viewBox="0 0 47 24" fill="none" xmlns="http://www.w3.org/2000/svg">
<rect opacity="0.3" width="47" height="24" rx="12" fill="black"/>
<path d="M13.0982 17.112C11.8942 17.112 10.9655 16.6967 10.3122 15.866C9.65884 15.026 9.33217 13.8267 9.33217 12.268C9.33217 11.1387 9.48151 10.1773 9.78017 9.384C10.0882 8.58133 10.5268 7.97 11.0962 7.55C11.6748 7.13 12.3655 6.92 13.1682 6.92C13.7468 6.92 14.3068 7.02733 14.8482 7.242C15.3895 7.44733 15.8702 7.75067 16.2902 8.152L15.8562 9.034C15.3895 8.63267 14.9368 8.34333 14.4982 8.166C14.0688 7.97933 13.6348 7.886 13.1962 7.886C12.3375 7.886 11.6702 8.26867 11.1942 9.034C10.7182 9.79 10.4802 10.8633 10.4802 12.254V13.458L10.3122 13.08C10.3868 12.604 10.5595 12.1933 10.8302 11.848C11.1008 11.4933 11.4368 11.2227 11.8382 11.036C12.2488 10.84 12.7015 10.742 13.1962 10.742C13.8122 10.742 14.3535 10.8773 14.8202 11.148C15.2868 11.4093 15.6508 11.778 15.9122 12.254C16.1735 12.73 16.3042 13.2807 16.3042 13.906C16.3042 14.522 16.1642 15.0727 15.8842 15.558C15.6135 16.0433 15.2355 16.426 14.7502 16.706C14.2742 16.9767 13.7235 17.112 13.0982 17.112ZM13.0422 16.146C13.6768 16.146 14.1902 15.9453 14.5822 15.544C14.9742 15.1333 15.1702 14.592 15.1702 13.92C15.1702 13.2573 14.9742 12.7253 14.5822 12.324C14.1902 11.9133 13.6722 11.708 13.0282 11.708C12.5988 11.708 12.2162 11.806 11.8802 12.002C11.5442 12.1887 11.2828 12.45 11.0962 12.786C10.9095 13.1127 10.8162 13.4907 10.8162 13.92C10.8162 14.368 10.9095 14.76 11.0962 15.096C11.2828 15.4227 11.5442 15.6793 11.8802 15.866C12.2162 16.0527 12.6035 16.146 13.0422 16.146ZM17.8667 15.558H19.3087V17H17.8667V15.558ZM17.8667 10.112H19.3087V11.568H17.8667V10.112ZM25.4889 17V8.474H25.8389L21.6949 14.452L21.7089 13.878H28.1489V14.83H20.8969V13.962L25.6989 7.032H26.6369V17H25.4889ZM32.8055 17.112C31.6668 17.112 30.7988 16.6827 30.2015 15.824C29.6135 14.956 29.3195 13.6867 29.3195 12.016C29.3195 10.3453 29.6135 9.08067 30.2015 8.222C30.7895 7.354 31.6575 6.92 32.8055 6.92C33.9535 6.92 34.8215 7.354 35.4095 8.222C35.9975 9.08067 36.2915 10.3407 36.2915 12.002C36.2915 13.6727 35.9928 14.942 35.3955 15.81C34.8075 16.678 33.9441 17.112 32.8055 17.112ZM32.8055 16.146C33.5988 16.146 34.1821 15.81 34.5555 15.138C34.9381 14.466 35.1295 13.4207 35.1295 12.002C35.1295 10.5833 34.9381 9.54733 34.5555 8.894C34.1821 8.23133 33.5988 7.9 32.8055 7.9C32.0121 7.9 31.4241 8.23133 31.0415 8.894C30.6681 9.55667 30.4815 10.5927 30.4815 12.002C30.4815 13.4207 30.6681 14.466 31.0415 15.138C31.4241 15.81 32.0121 16.146 32.8055 16.146Z" fill="white"/>
</svg>
