<svg width="47" height="24" viewBox="0 0 47 24" fill="none" xmlns="http://www.w3.org/2000/svg">
<rect opacity="0.3" width="47" height="24" rx="12" fill="black"/>
<path d="M10.7382 17V16.132L14.2242 12.268C14.6908 11.7453 15.0315 11.274 15.2462 10.854C15.4608 10.434 15.5682 10.014 15.5682 9.594C15.5682 9.04333 15.4095 8.62333 15.0922 8.334C14.7748 8.03533 14.3222 7.886 13.7342 7.886C13.2488 7.886 12.7728 7.984 12.3062 8.18C11.8395 8.36667 11.3728 8.65133 10.9062 9.034L10.4722 8.152C10.8642 7.77867 11.3588 7.48 11.9562 7.256C12.5535 7.032 13.1555 6.92 13.7622 6.92C14.3688 6.92 14.8915 7.02733 15.3302 7.242C15.7782 7.44733 16.1235 7.746 16.3662 8.138C16.6088 8.53 16.7302 8.99667 16.7302 9.538C16.7302 10.1073 16.5995 10.658 16.3382 11.19C16.0862 11.7127 15.6615 12.3007 15.0642 12.954L11.7042 16.594L11.6202 16.034H17.1502V17H10.7382ZM18.8667 15.558H20.3087V17H18.8667V15.558ZM18.8667 10.112H20.3087V11.568H18.8667V10.112ZM25.2009 16.482V7.704L25.8589 8.04L23.1569 9.762V8.656L25.7049 7.032H26.3629V16.482H25.2009ZM23.0029 17V16.034H28.5609V17H23.0029ZM30.7675 17V16.132L34.2535 12.268C34.7201 11.7453 35.0608 11.274 35.2755 10.854C35.4901 10.434 35.5975 10.014 35.5975 9.594C35.5975 9.04333 35.4388 8.62333 35.1215 8.334C34.8041 8.03533 34.3515 7.886 33.7635 7.886C33.2781 7.886 32.8021 7.984 32.3355 8.18C31.8688 8.36667 31.4021 8.65133 30.9355 9.034L30.5015 8.152C30.8935 7.77867 31.3881 7.48 31.9855 7.256C32.5828 7.032 33.1848 6.92 33.7915 6.92C34.3981 6.92 34.9208 7.02733 35.3595 7.242C35.8075 7.44733 36.1528 7.746 36.3955 8.138C36.6381 8.53 36.7595 8.99667 36.7595 9.538C36.7595 10.1073 36.6288 10.658 36.3675 11.19C36.1155 11.7127 35.6908 12.3007 35.0935 12.954L31.7335 16.594L31.6495 16.034H37.1795V17H30.7675Z" fill="white"/>
</svg>
