<svg width="47" height="24" viewBox="0 0 47 24" fill="none" xmlns="http://www.w3.org/2000/svg">
<rect opacity="0.3" width="47" height="24" rx="12" fill="black"/>
<path d="M14.8542 17V8.474H15.2042L11.0602 14.452L11.0742 13.878H17.5142V14.83H10.2622V13.962L15.0642 7.032H16.0022V17H14.8542ZM18.8667 15.558H20.3087V17H18.8667V15.558ZM18.8667 10.112H20.3087V11.568H18.8667V10.112ZM25.2009 16.482V7.704L25.8589 8.04L23.1569 9.762V8.656L25.7049 7.032H26.3629V16.482H25.2009ZM23.0029 17V16.034H28.5609V17H23.0029ZM33.9595 17.098C33.3528 17.098 32.7555 16.9907 32.1675 16.776C31.5795 16.552 31.0848 16.2487 30.6835 15.866L31.1175 14.984C31.5748 15.3573 32.0368 15.642 32.5035 15.838C32.9795 16.034 33.4648 16.132 33.9595 16.132C34.6595 16.132 35.2055 15.936 35.5975 15.544C35.9988 15.1427 36.1995 14.6013 36.1995 13.92C36.1995 13.4813 36.1108 13.0987 35.9335 12.772C35.7561 12.436 35.5041 12.1747 35.1775 11.988C34.8601 11.8013 34.4821 11.708 34.0435 11.708C33.5675 11.708 33.1381 11.806 32.7555 12.002C32.3821 12.1887 32.0508 12.478 31.7615 12.87H30.9635V7.032H36.9415V7.984H32.1115V12.016L31.7475 11.974C32.0181 11.582 32.3635 11.2787 32.7835 11.064C33.2128 10.8493 33.6935 10.742 34.2255 10.742C34.8601 10.742 35.4108 10.8773 35.8775 11.148C36.3441 11.4093 36.7035 11.778 36.9555 12.254C37.2075 12.73 37.3335 13.2807 37.3335 13.906C37.3335 14.5313 37.1935 15.0867 36.9135 15.572C36.6428 16.048 36.2555 16.4213 35.7515 16.692C35.2475 16.9627 34.6501 17.098 33.9595 17.098Z" fill="white"/>
</svg>
