<svg width="47" height="24" viewBox="0 0 47 24" fill="none" xmlns="http://www.w3.org/2000/svg">
<rect opacity="0.3" width="47" height="24" rx="12" fill="black"/>
<path d="M12.7762 17.098C12.0482 17.098 11.4182 16.9907 10.8862 16.776C10.3542 16.552 9.93884 16.2347 9.64017 15.824C9.35084 15.4133 9.20617 14.9233 9.20617 14.354C9.20617 13.6633 9.43951 13.0893 9.90617 12.632C10.3728 12.1747 10.9982 11.89 11.7822 11.778L11.7122 11.988C10.9842 11.848 10.4195 11.5633 10.0182 11.134C9.62617 10.7047 9.43017 10.182 9.43017 9.566C9.43017 9.02467 9.57017 8.558 9.85017 8.166C10.1395 7.76467 10.5315 7.45667 11.0262 7.242C11.5302 7.02733 12.1135 6.92 12.7762 6.92C13.4388 6.92 14.0175 7.02733 14.5122 7.242C15.0162 7.45667 15.4082 7.76467 15.6882 8.166C15.9775 8.558 16.1222 9.02467 16.1222 9.566C16.1222 10.182 15.9215 10.7093 15.5202 11.148C15.1282 11.5773 14.5728 11.8573 13.8542 11.988L13.7702 11.778C14.5822 11.89 15.2122 12.1793 15.6602 12.646C16.1175 13.1033 16.3462 13.6727 16.3462 14.354C16.3462 14.9233 16.1968 15.4133 15.8982 15.824C15.6088 16.2347 15.1982 16.552 14.6662 16.776C14.1342 16.9907 13.5042 17.098 12.7762 17.098ZM12.7762 16.146C13.5602 16.146 14.1622 15.9873 14.5822 15.67C15.0022 15.3527 15.2122 14.8907 15.2122 14.284C15.2122 13.7147 14.9835 13.2713 14.5262 12.954C14.0688 12.6273 13.4855 12.4267 12.7762 12.352C12.0668 12.4267 11.4835 12.6273 11.0262 12.954C10.5688 13.2713 10.3402 13.7147 10.3402 14.284C10.3402 14.8907 10.5502 15.3527 10.9702 15.67C11.3902 15.9873 11.9922 16.146 12.7762 16.146ZM12.7762 11.554C13.4295 11.4793 13.9568 11.2787 14.3582 10.952C14.7688 10.6253 14.9742 10.1913 14.9742 9.65C14.9742 9.09 14.7782 8.656 14.3862 8.348C14.0035 8.03067 13.4668 7.872 12.7762 7.872C12.0855 7.872 11.5442 8.03067 11.1522 8.348C10.7695 8.656 10.5782 9.09 10.5782 9.65C10.5782 10.1913 10.7788 10.6253 11.1802 10.952C11.5908 11.2787 12.1228 11.4793 12.7762 11.554ZM17.8667 15.558H19.3087V17H17.8667V15.558ZM17.8667 10.112H19.3087V11.568H17.8667V10.112ZM24.4109 17.112C23.2723 17.112 22.4043 16.6827 21.8069 15.824C21.2189 14.956 20.9249 13.6867 20.9249 12.016C20.9249 10.3453 21.2189 9.08067 21.8069 8.222C22.3949 7.354 23.2629 6.92 24.4109 6.92C25.5589 6.92 26.4269 7.354 27.0149 8.222C27.6029 9.08067 27.8969 10.3407 27.8969 12.002C27.8969 13.6727 27.5983 14.942 27.0009 15.81C26.4129 16.678 25.5496 17.112 24.4109 17.112ZM24.4109 16.146C25.2043 16.146 25.7876 15.81 26.1609 15.138C26.5436 14.466 26.7349 13.4207 26.7349 12.002C26.7349 10.5833 26.5436 9.54733 26.1609 8.894C25.7876 8.23133 25.2043 7.9 24.4109 7.9C23.6176 7.9 23.0296 8.23133 22.6469 8.894C22.2736 9.55667 22.0869 10.5927 22.0869 12.002C22.0869 13.4207 22.2736 14.466 22.6469 15.138C23.0296 15.81 23.6176 16.146 24.4109 16.146ZM32.8055 17.112C31.6668 17.112 30.7988 16.6827 30.2015 15.824C29.6135 14.956 29.3195 13.6867 29.3195 12.016C29.3195 10.3453 29.6135 9.08067 30.2015 8.222C30.7895 7.354 31.6575 6.92 32.8055 6.92C33.9535 6.92 34.8215 7.354 35.4095 8.222C35.9975 9.08067 36.2915 10.3407 36.2915 12.002C36.2915 13.6727 35.9928 14.942 35.3955 15.81C34.8075 16.678 33.9441 17.112 32.8055 17.112ZM32.8055 16.146C33.5988 16.146 34.1821 15.81 34.5555 15.138C34.9381 14.466 35.1295 13.4207 35.1295 12.002C35.1295 10.5833 34.9381 9.54733 34.5555 8.894C34.1821 8.23133 33.5988 7.9 32.8055 7.9C32.0121 7.9 31.4241 8.23133 31.0415 8.894C30.6681 9.55667 30.4815 10.5927 30.4815 12.002C30.4815 13.4207 30.6681 14.466 31.0415 15.138C31.4241 15.81 32.0121 16.146 32.8055 16.146Z" fill="white"/>
</svg>
