<svg width="47" height="24" viewBox="0 0 47 24" fill="none" xmlns="http://www.w3.org/2000/svg">
<rect opacity="0.3" width="47" height="24" rx="12" fill="black"/>
<path d="M12.9302 17.098C12.3235 17.098 11.7262 16.9907 11.1382 16.776C10.5502 16.552 10.0555 16.2487 9.65417 15.866L10.0882 14.984C10.5455 15.3573 11.0075 15.642 11.4742 15.838C11.9502 16.034 12.4355 16.132 12.9302 16.132C13.6302 16.132 14.1762 15.936 14.5682 15.544C14.9695 15.1427 15.1702 14.6013 15.1702 13.92C15.1702 13.4813 15.0815 13.0987 14.9042 12.772C14.7268 12.436 14.4748 12.1747 14.1482 11.988C13.8308 11.8013 13.4528 11.708 13.0142 11.708C12.5382 11.708 12.1088 11.806 11.7262 12.002C11.3528 12.1887 11.0215 12.478 10.7322 12.87H9.93417V7.032H15.9122V7.984H11.0822V12.016L10.7182 11.974C10.9888 11.582 11.3342 11.2787 11.7542 11.064C12.1835 10.8493 12.6642 10.742 13.1962 10.742C13.8308 10.742 14.3815 10.8773 14.8482 11.148C15.3148 11.4093 15.6742 11.778 15.9262 12.254C16.1782 12.73 16.3042 13.2807 16.3042 13.906C16.3042 14.5313 16.1642 15.0867 15.8842 15.572C15.6135 16.048 15.2262 16.4213 14.7222 16.692C14.2182 16.9627 13.6208 17.098 12.9302 17.098ZM17.8667 15.558H19.3087V17H17.8667V15.558ZM17.8667 10.112H19.3087V11.568H17.8667V10.112ZM24.3129 17.098C23.6689 17.098 23.0483 16.9907 22.4509 16.776C21.8629 16.5613 21.3636 16.258 20.9529 15.866L21.4009 14.984C21.8489 15.3667 22.3109 15.656 22.7869 15.852C23.2629 16.0387 23.7623 16.132 24.2849 16.132C24.9943 16.132 25.5309 15.9733 25.8949 15.656C26.2683 15.3387 26.4549 14.872 26.4549 14.256C26.4549 13.64 26.2636 13.1827 25.8809 12.884C25.4983 12.576 24.9243 12.422 24.1589 12.422H23.0109V11.456H23.9349C24.6723 11.456 25.2369 11.2927 25.6289 10.966C26.0209 10.6393 26.2169 10.1727 26.2169 9.566C26.2169 9.02467 26.0536 8.60933 25.7269 8.32C25.4096 8.03067 24.9569 7.886 24.3689 7.886C23.8743 7.886 23.3936 7.984 22.9269 8.18C22.4603 8.36667 21.9983 8.65133 21.5409 9.034L21.1069 8.152C21.5083 7.76933 22.0029 7.47067 22.5909 7.256C23.1789 7.032 23.7856 6.92 24.4109 6.92C25.0083 6.92 25.5309 7.02733 25.9789 7.242C26.4269 7.44733 26.7676 7.74133 27.0009 8.124C27.2436 8.50667 27.3649 8.95933 27.3649 9.482C27.3649 10.098 27.2016 10.6253 26.8749 11.064C26.5576 11.4933 26.1189 11.7873 25.5589 11.946L25.5169 11.806C26.1889 11.946 26.7023 12.2307 27.0569 12.66C27.4116 13.0893 27.5889 13.6353 27.5889 14.298C27.5889 15.166 27.2949 15.852 26.7069 16.356C26.1189 16.8507 25.3209 17.098 24.3129 17.098ZM29.7675 17V16.132L33.2535 12.268C33.7201 11.7453 34.0608 11.274 34.2755 10.854C34.4901 10.434 34.5975 10.014 34.5975 9.594C34.5975 9.04333 34.4388 8.62333 34.1215 8.334C33.8041 8.03533 33.3515 7.886 32.7635 7.886C32.2781 7.886 31.8021 7.984 31.3355 8.18C30.8688 8.36667 30.4021 8.65133 29.9355 9.034L29.5015 8.152C29.8935 7.77867 30.3881 7.48 30.9855 7.256C31.5828 7.032 32.1848 6.92 32.7915 6.92C33.3981 6.92 33.9208 7.02733 34.3595 7.242C34.8075 7.44733 35.1528 7.746 35.3955 8.138C35.6381 8.53 35.7595 8.99667 35.7595 9.538C35.7595 10.1073 35.6288 10.658 35.3675 11.19C35.1155 11.7127 34.6908 12.3007 34.0935 12.954L30.7335 16.594L30.6495 16.034H36.1795V17H29.7675Z" fill="white"/>
</svg>
