<svg width="47" height="24" viewBox="0 0 47 24" fill="none" xmlns="http://www.w3.org/2000/svg">
<rect opacity="0.3" width="47" height="24" rx="12" fill="black"/>
<path d="M9.73817 17V16.132L13.2242 12.268C13.6908 11.7453 14.0315 11.274 14.2462 10.854C14.4608 10.434 14.5682 10.014 14.5682 9.594C14.5682 9.04333 14.4095 8.62333 14.0922 8.334C13.7748 8.03533 13.3222 7.886 12.7342 7.886C12.2488 7.886 11.7728 7.984 11.3062 8.18C10.8395 8.36667 10.3728 8.65133 9.90617 9.034L9.47217 8.152C9.86417 7.77867 10.3588 7.48 10.9562 7.256C11.5535 7.032 12.1555 6.92 12.7622 6.92C13.3688 6.92 13.8915 7.02733 14.3302 7.242C14.7782 7.44733 15.1235 7.746 15.3662 8.138C15.6088 8.53 15.7302 8.99667 15.7302 9.538C15.7302 10.1073 15.5995 10.658 15.3382 11.19C15.0862 11.7127 14.6615 12.3007 14.0642 12.954L10.7042 16.594L10.6202 16.034H16.1502V17H9.73817ZM17.8667 15.558H19.3087V17H17.8667V15.558ZM17.8667 10.112H19.3087V11.568H17.8667V10.112ZM24.2009 16.482V7.704L24.8589 8.04L22.1569 9.762V8.656L24.7049 7.032H25.3629V16.482H24.2009ZM22.0029 17V16.034H27.5609V17H22.0029ZM29.7675 17V16.132L33.2535 12.268C33.7201 11.7453 34.0608 11.274 34.2755 10.854C34.4901 10.434 34.5975 10.014 34.5975 9.594C34.5975 9.04333 34.4388 8.62333 34.1215 8.334C33.8041 8.03533 33.3515 7.886 32.7635 7.886C32.2781 7.886 31.8021 7.984 31.3355 8.18C30.8688 8.36667 30.4021 8.65133 29.9355 9.034L29.5015 8.152C29.8935 7.77867 30.3881 7.48 30.9855 7.256C31.5828 7.032 32.1848 6.92 32.7915 6.92C33.3981 6.92 33.9208 7.02733 34.3595 7.242C34.8075 7.44733 35.1528 7.746 35.3955 8.138C35.6381 8.53 35.7595 8.99667 35.7595 9.538C35.7595 10.1073 35.6288 10.658 35.3675 11.19C35.1155 11.7127 34.6908 12.3007 34.0935 12.954L30.7335 16.594L30.6495 16.034H36.1795V17H29.7675Z" fill="white"/>
</svg>
