<svg width="42" height="17" viewBox="0 0 42 17" fill="none" xmlns="http://www.w3.org/2000/svg">
<path d="M4.27 15.186V1.392L5.304 1.92L1.058 4.626V2.888L5.062 0.336H6.096V15.186H4.27ZM0.816 16V14.482H9.55V16H0.816ZM12.5994 13.734H14.8654V16H12.5994V13.734ZM12.5994 5.176H14.8654V7.464H12.5994V5.176ZM22.7292 16.154C21.7172 16.154 20.7419 15.9853 19.8032 15.648C18.8792 15.3107 18.0945 14.834 17.4492 14.218L18.1532 12.832C18.8572 13.4333 19.5832 13.888 20.3312 14.196C21.0792 14.4893 21.8639 14.636 22.6852 14.636C23.7999 14.636 24.6432 14.3867 25.2152 13.888C25.8019 13.3893 26.0952 12.656 26.0952 11.688C26.0952 10.72 25.7945 10.0013 25.1932 9.532C24.5919 9.048 23.6899 8.806 22.4872 8.806H20.6832V7.288H22.1352C23.2939 7.288 24.1812 7.03133 24.7972 6.518C25.4132 6.00467 25.7212 5.27133 25.7212 4.318C25.7212 3.46733 25.4645 2.81467 24.9512 2.36C24.4525 1.90533 23.7412 1.678 22.8172 1.678C22.0399 1.678 21.2845 1.832 20.5512 2.14C19.8179 2.43333 19.0919 2.88067 18.3732 3.482L17.6912 2.096C18.3219 1.49467 19.0992 1.02533 20.0232 0.687999C20.9472 0.335999 21.9005 0.159999 22.8832 0.159999C23.8219 0.159999 24.6432 0.328666 25.3472 0.665999C26.0512 0.988666 26.5865 1.45067 26.9532 2.052C27.3345 2.65333 27.5252 3.36467 27.5252 4.186C27.5252 5.154 27.2685 5.98267 26.7552 6.672C26.2565 7.34667 25.5672 7.80867 24.6872 8.058L24.6212 7.838C25.6772 8.058 26.4839 8.50533 27.0412 9.18C27.5985 9.85467 27.8772 10.7127 27.8772 11.754C27.8772 13.118 27.4152 14.196 26.4912 14.988C25.5672 15.7653 24.3132 16.154 22.7292 16.154ZM37.7686 16V2.602H38.3186L31.8066 11.996L31.8286 11.094H41.9486V12.59H30.5526V11.226L38.0986 0.336H39.5726V16H37.7686Z" fill="white"/>
</svg>
