<svg width="55" height="17" viewBox="0 0 55 17" fill="none" xmlns="http://www.w3.org/2000/svg">
<path d="M4.41258 15.186V1.392L5.44658 1.92L1.20058 4.626V2.888L5.20458 0.336H6.23858V15.186H4.41258ZM0.958578 16V14.482H9.69258V16H0.958578ZM17.45 0.159999C19.342 0.159999 20.8013 0.819999 21.828 2.14C22.8547 3.44533 23.368 5.32267 23.368 7.772C23.368 9.54667 23.126 11.0647 22.642 12.326C22.1727 13.5727 21.4833 14.526 20.574 15.186C19.6793 15.846 18.594 16.176 17.318 16.176C16.4233 16.176 15.5433 16.0147 14.678 15.692C13.8273 15.3547 13.072 14.8707 12.412 14.24L13.116 12.854C13.864 13.4847 14.5753 13.9467 15.25 14.24C15.9247 14.5187 16.6067 14.658 17.296 14.658C18.6453 14.658 19.6867 14.064 20.42 12.876C21.168 11.6733 21.542 9.97933 21.542 7.794V5.902L21.828 6.474C21.7107 7.23667 21.4393 7.89667 21.014 8.454C20.5887 8.99667 20.0533 9.422 19.408 9.73C18.7627 10.0233 18.0513 10.17 17.274 10.17C16.3207 10.17 15.4773 9.96467 14.744 9.554C14.0107 9.12867 13.4387 8.542 13.028 7.794C12.6173 7.046 12.412 6.18067 12.412 5.198C12.412 4.23 12.6247 3.36467 13.05 2.602C13.49 1.83933 14.0913 1.24533 14.854 0.819999C15.6167 0.379999 16.482 0.159999 17.45 0.159999ZM17.538 1.678C16.526 1.678 15.712 2.00067 15.096 2.646C14.4947 3.27667 14.194 4.12 14.194 5.176C14.194 6.21733 14.502 7.06067 15.118 7.706C15.734 8.33667 16.548 8.652 17.56 8.652C18.2347 8.652 18.836 8.50533 19.364 8.212C19.892 7.904 20.3027 7.49333 20.596 6.98C20.8893 6.452 21.036 5.85067 21.036 5.176C21.036 4.472 20.8893 3.86333 20.596 3.35C20.3027 2.822 19.892 2.41133 19.364 2.118C18.836 1.82467 18.2273 1.678 17.538 1.678ZM25.9334 13.734H28.1994V16H25.9334V13.734ZM25.9334 5.176H28.1994V7.464H25.9334V5.176ZM36.2172 16.176C34.4279 16.176 33.0639 15.5013 32.1252 14.152C31.2012 12.788 30.7392 10.7933 30.7392 8.168C30.7392 5.54267 31.2012 3.55533 32.1252 2.206C33.0492 0.841999 34.4132 0.159999 36.2172 0.159999C38.0212 0.159999 39.3852 0.841999 40.3092 2.206C41.2332 3.55533 41.6952 5.53533 41.6952 8.146C41.6952 10.7713 41.2259 12.766 40.2872 14.13C39.3632 15.494 38.0065 16.176 36.2172 16.176ZM36.2172 14.658C37.4639 14.658 38.3805 14.13 38.9672 13.074C39.5685 12.018 39.8692 10.3753 39.8692 8.146C39.8692 5.91667 39.5685 4.28867 38.9672 3.262C38.3805 2.22067 37.4639 1.7 36.2172 1.7C34.9705 1.7 34.0465 2.22067 33.4452 3.262C32.8585 4.30333 32.5652 5.93133 32.5652 8.146C32.5652 10.3753 32.8585 12.018 33.4452 13.074C34.0465 14.13 34.9705 14.658 36.2172 14.658ZM49.4086 16.176C47.6193 16.176 46.2553 15.5013 45.3166 14.152C44.3926 12.788 43.9306 10.7933 43.9306 8.168C43.9306 5.54267 44.3926 3.55533 45.3166 2.206C46.2406 0.841999 47.6046 0.159999 49.4086 0.159999C51.2126 0.159999 52.5766 0.841999 53.5006 2.206C54.4246 3.55533 54.8866 5.53533 54.8866 8.146C54.8866 10.7713 54.4173 12.766 53.4786 14.13C52.5546 15.494 51.1979 16.176 49.4086 16.176ZM49.4086 14.658C50.6553 14.658 51.5719 14.13 52.1586 13.074C52.7599 12.018 53.0606 10.3753 53.0606 8.146C53.0606 5.91667 52.7599 4.28867 52.1586 3.262C51.5719 2.22067 50.6553 1.7 49.4086 1.7C48.1619 1.7 47.2379 2.22067 46.6366 3.262C46.0499 4.30333 45.7566 5.93133 45.7566 8.146C45.7566 10.3753 46.0499 12.018 46.6366 13.074C47.2379 14.13 48.1619 14.658 49.4086 14.658Z" fill="white"/>
</svg>
