<svg width="100" height="40" viewBox="0 0 100 40" fill="none" xmlns="http://www.w3.org/2000/svg">
<rect opacity="0.3" width="100" height="40" rx="20" fill="#EBEBEB"/>
<path opacity="0.24" fill-rule="evenodd" clip-rule="evenodd" d="M21 17.2671C21 16.5677 21.5968 16.002 22.333 16.002C22.333 16.002 29.0491 15.9975 30.0029 16.002C32.0812 15.9806 33.3926 16.5453 33.9582 18.0018C34.11 18.3742 34.9501 21.5831 34.9574 21.619C35.1966 22.6829 34.4012 23.6122 33.2412 23.6122L30.8353 23.6123C30.6496 23.6123 30.5284 23.7515 30.5647 23.9239C30.5647 23.9239 30.7434 24.7679 30.7822 24.9772C30.9276 25.76 31.0069 26.3756 30.9995 26.7934C31.012 27.4535 30.6391 28.0073 30.0497 28.4442C29.7323 28.6795 29.2469 28.8986 29.2469 28.8986C28.7415 29.1411 28.136 28.9317 27.9014 28.4493C27.9014 28.4493 25.9871 24.4883 25.8279 24.1859C25.6688 23.8834 25.252 23.612 24.8825 23.612H22.333C21.5975 23.612 21 23.0455 21 22.3468V17.2671ZM30.0173 17.2702C31.4976 17.255 32.231 17.5394 32.6047 18.2216H32.3349C31.9656 18.2216 31.6663 18.503 31.6663 18.8557C31.6663 19.206 31.9618 19.4899 32.3349 19.4899H33.0027C33.0577 19.691 33.1167 19.907 33.1758 20.1241H32.6682C32.2989 20.1241 31.9996 20.4055 31.9996 20.7582C31.9996 21.1085 32.2951 21.3924 32.6682 21.3924H33.5203C33.5978 21.6786 33.6492 21.8688 33.6517 21.8786C33.715 22.157 33.5544 22.3438 33.2411 22.3438L30.8352 22.344C29.8106 22.344 29.0553 23.2132 29.2577 24.1743C29.2646 24.2069 29.4566 25.1297 29.4693 25.1977C29.607 25.94 29.6717 26.4704 29.6664 26.7722L29.6665 26.8163C29.6701 27.0056 29.549 27.2074 29.2302 27.4437C29.1944 27.4703 28.9599 27.6053 28.9599 27.6053L27.038 23.6533C26.6818 22.9209 25.8487 22.3919 24.9998 22.3468V17.2677C27.115 17.2682 29.7585 17.2691 30.0173 17.2702ZM23.6666 22.3436H22.333L22.3333 17.2671L23.6666 17.2674V22.3436Z" fill="black"/>
<path d="M49.032 26V16.256H49.432L44.696 23.088L44.712 22.432H52.072V23.52H43.784V22.528L49.272 14.608H50.344V26H49.032ZM57.2818 26.112C56.5458 26.112 55.8364 25.9893 55.1538 25.744C54.4818 25.4987 53.9111 25.152 53.4418 24.704L53.9538 23.696C54.4658 24.1333 54.9938 24.464 55.5378 24.688C56.0818 24.9013 56.6524 25.008 57.2498 25.008C58.0604 25.008 58.6738 24.8267 59.0898 24.464C59.5164 24.1013 59.7298 23.568 59.7298 22.864C59.7298 22.16 59.5111 21.6373 59.0738 21.296C58.6364 20.944 57.9804 20.768 57.1058 20.768H55.7938V19.664H56.8498C57.6924 19.664 58.3378 19.4773 58.7858 19.104C59.2338 18.7307 59.4578 18.1973 59.4578 17.504C59.4578 16.8853 59.2711 16.4107 58.8978 16.08C58.5351 15.7493 58.0178 15.584 57.3458 15.584C56.7804 15.584 56.2311 15.696 55.6978 15.92C55.1644 16.1333 54.6364 16.4587 54.1138 16.896L53.6178 15.888C54.0764 15.4507 54.6418 15.1093 55.3138 14.864C55.9858 14.608 56.6791 14.48 57.3938 14.48C58.0764 14.48 58.6738 14.6027 59.1858 14.848C59.6978 15.0827 60.0871 15.4187 60.3538 15.856C60.6311 16.2933 60.7698 16.8107 60.7698 17.408C60.7698 18.112 60.5831 18.7147 60.2098 19.216C59.8471 19.7067 59.3458 20.0427 58.7058 20.224L58.6578 20.064C59.4258 20.224 60.0124 20.5493 60.4178 21.04C60.8231 21.5307 61.0258 22.1547 61.0258 22.912C61.0258 23.904 60.6898 24.688 60.0178 25.264C59.3458 25.8293 58.4338 26.112 57.2818 26.112ZM67.1635 26.112C66.4702 26.112 65.7875 25.9893 65.1155 25.744C64.4435 25.488 63.8782 25.1413 63.4195 24.704L63.9155 23.696C64.4382 24.1227 64.9662 24.448 65.4995 24.672C66.0435 24.896 66.5982 25.008 67.1635 25.008C67.9635 25.008 68.5875 24.784 69.0355 24.336C69.4942 23.8773 69.7235 23.2587 69.7235 22.48C69.7235 21.9787 69.6222 21.5413 69.4195 21.168C69.2168 20.784 68.9288 20.4853 68.5555 20.272C68.1928 20.0587 67.7608 19.952 67.2595 19.952C66.7155 19.952 66.2248 20.064 65.7875 20.288C65.3608 20.5013 64.9822 20.832 64.6515 21.28H63.7395V14.608H70.5715V15.696H65.0515V20.304L64.6355 20.256C64.9448 19.808 65.3395 19.4613 65.8195 19.216C66.3102 18.9707 66.8595 18.848 67.4675 18.848C68.1928 18.848 68.8222 19.0027 69.3555 19.312C69.8888 19.6107 70.2995 20.032 70.5875 20.576C70.8755 21.12 71.0195 21.7493 71.0195 22.464C71.0195 23.1787 70.8595 23.8133 70.5395 24.368C70.2302 24.912 69.7875 25.3387 69.2115 25.648C68.6355 25.9573 67.9528 26.112 67.1635 26.112ZM78.4533 26L74.0693 21.888L78.1173 17.968H79.7653L75.2853 22.256L75.3333 21.44L80.1493 26H78.4533ZM73.0293 26V14.224H74.3253V26H73.0293Z" fill="#192646"/>
</svg>
