<svg width="100" height="40" viewBox="0 0 100 40" fill="none" xmlns="http://www.w3.org/2000/svg">
<rect opacity="0.3" width="100" height="40" rx="20" fill="#EBEBEB"/>
<path opacity="0.24" fill-rule="evenodd" clip-rule="evenodd" d="M20 25.7329C20 26.4323 20.5968 26.998 21.333 26.998C21.333 26.998 28.0491 27.0025 29.0029 26.998C31.0812 27.0194 32.3926 26.4547 32.9582 24.9982C33.11 24.6258 33.9501 21.4169 33.9574 21.381C34.1966 20.3171 33.4012 19.3878 32.2412 19.3878L29.8353 19.3877C29.6496 19.3877 29.5284 19.2485 29.5647 19.0761C29.5647 19.0761 29.7434 18.2321 29.7822 18.0228C29.9276 17.24 30.0069 16.6244 29.9995 16.2066C30.012 15.5465 29.6391 14.9927 29.0497 14.5558C28.7323 14.3205 28.2469 14.1014 28.2469 14.1014C27.7415 13.8589 27.136 14.0683 26.9014 14.5507C26.9014 14.5507 24.9871 18.5117 24.8279 18.8141C24.6688 19.1166 24.252 19.388 23.8825 19.388H21.333C20.5975 19.388 20 19.9545 20 20.6532V25.7329ZM29.0173 25.7298C30.4976 25.745 31.231 25.4606 31.6047 24.7784H31.3349C30.9656 24.7784 30.6663 24.497 30.6663 24.1443C30.6663 23.794 30.9618 23.5101 31.3349 23.5101H32.0027C32.0577 23.309 32.1167 23.093 32.1758 22.8759H31.6682C31.2989 22.8759 30.9996 22.5945 30.9996 22.2418C30.9996 21.8915 31.2951 21.6076 31.6682 21.6076H32.5203C32.5978 21.3214 32.6492 21.1312 32.6517 21.1214C32.715 20.843 32.5544 20.6562 32.2411 20.6562L29.8352 20.656C28.8106 20.656 28.0553 19.7868 28.2577 18.8257C28.2646 18.7931 28.4566 17.8703 28.4693 17.8023C28.607 17.06 28.6717 16.5296 28.6664 16.2278L28.6665 16.1837C28.6701 15.9944 28.549 15.7926 28.2302 15.5563C28.1944 15.5297 27.9599 15.3947 27.9599 15.3947L26.038 19.3467C25.6818 20.0791 24.8487 20.6081 23.9998 20.6532V25.7323C26.115 25.7318 28.7585 25.7309 29.0173 25.7298ZM22.6666 20.6564H21.333L21.3333 25.7329L22.6666 25.7326V20.6564Z" fill="black"/>
<path d="M46.56 25.408V15.376L47.312 15.76L44.224 17.728V16.464L47.136 14.608H47.888V25.408H46.56ZM44.048 26V24.896H50.4V26H44.048ZM52.9218 26V25.008L56.9058 20.592C57.4391 19.9947 57.8284 19.456 58.0738 18.976C58.3191 18.496 58.4418 18.016 58.4418 17.536C58.4418 16.9067 58.2604 16.4267 57.8978 16.096C57.5351 15.7547 57.0178 15.584 56.3458 15.584C55.7911 15.584 55.2471 15.696 54.7138 15.92C54.1804 16.1333 53.6471 16.4587 53.1138 16.896L52.6178 15.888C53.0658 15.4613 53.6311 15.12 54.3138 14.864C54.9964 14.608 55.6844 14.48 56.3778 14.48C57.0711 14.48 57.6684 14.6027 58.1698 14.848C58.6818 15.0827 59.0764 15.424 59.3538 15.872C59.6311 16.32 59.7698 16.8533 59.7698 17.472C59.7698 18.1227 59.6204 18.752 59.3218 19.36C59.0338 19.9573 58.5484 20.6293 57.8658 21.376L54.0258 25.536L53.9298 24.896H60.2498V26H52.9218ZM65.8755 26.112C65.1395 26.112 64.4302 25.9893 63.7475 25.744C63.0755 25.4987 62.5048 25.152 62.0355 24.704L62.5475 23.696C63.0595 24.1333 63.5875 24.464 64.1315 24.688C64.6755 24.9013 65.2462 25.008 65.8435 25.008C66.6542 25.008 67.2675 24.8267 67.6835 24.464C68.1102 24.1013 68.3235 23.568 68.3235 22.864C68.3235 22.16 68.1048 21.6373 67.6675 21.296C67.2302 20.944 66.5742 20.768 65.6995 20.768H64.3875V19.664H65.4435C66.2862 19.664 66.9315 19.4773 67.3795 19.104C67.8275 18.7307 68.0515 18.1973 68.0515 17.504C68.0515 16.8853 67.8648 16.4107 67.4915 16.08C67.1288 15.7493 66.6115 15.584 65.9395 15.584C65.3742 15.584 64.8248 15.696 64.2915 15.92C63.7582 16.1333 63.2302 16.4587 62.7075 16.896L62.2115 15.888C62.6702 15.4507 63.2355 15.1093 63.9075 14.864C64.5795 14.608 65.2728 14.48 65.9875 14.48C66.6702 14.48 67.2675 14.6027 67.7795 14.848C68.2915 15.0827 68.6808 15.4187 68.9475 15.856C69.2248 16.2933 69.3635 16.8107 69.3635 17.408C69.3635 18.112 69.1768 18.7147 68.8035 19.216C68.4408 19.7067 67.9395 20.0427 67.2995 20.224L67.2515 20.064C68.0195 20.224 68.6062 20.5493 69.0115 21.04C69.4168 21.5307 69.6195 22.1547 69.6195 22.912C69.6195 23.904 69.2835 24.688 68.6115 25.264C67.9395 25.8293 67.0275 26.112 65.8755 26.112ZM77.4533 26L73.0693 21.888L77.1173 17.968H78.7653L74.2853 22.256L74.3333 21.44L79.1493 26H77.4533ZM72.0293 26V14.224H73.3253V26H72.0293Z" fill="#192646"/>
</svg>
