<svg width="19" height="9" viewBox="0 0 19 9" fill="none" xmlns="http://www.w3.org/2000/svg">
<path d="M1.85 7.63V1.36L2.32 1.6L0.39 2.83V2.04L2.21 0.88H2.68V7.63H1.85ZM0.28 8V7.31H4.25V8H0.28ZM5.63609 6.97H6.66609V8H5.63609V6.97ZM5.63609 3.08H6.66609V4.12H5.63609V3.08ZM10.2405 8.07C9.78055 8.07 9.33721 7.99333 8.91055 7.84C8.49055 7.68667 8.13388 7.47 7.84055 7.19L8.16055 6.56C8.48055 6.83333 8.81055 7.04 9.15055 7.18C9.49055 7.31333 9.84721 7.38 10.2205 7.38C10.7272 7.38 11.1105 7.26667 11.3705 7.04C11.6372 6.81333 11.7705 6.48 11.7705 6.04C11.7705 5.6 11.6339 5.27333 11.3605 5.06C11.0872 4.84 10.6772 4.73 10.1305 4.73H9.31055V4.04H9.97055C10.4972 4.04 10.9005 3.92333 11.1805 3.69C11.4605 3.45667 11.6005 3.12333 11.6005 2.69C11.6005 2.30333 11.4839 2.00667 11.2505 1.8C11.0239 1.59333 10.7005 1.49 10.2805 1.49C9.92721 1.49 9.58388 1.56 9.25055 1.7C8.91721 1.83333 8.58721 2.03667 8.26055 2.31L7.95055 1.68C8.23721 1.40667 8.59055 1.19333 9.01055 1.04C9.43055 0.88 9.86388 0.8 10.3105 0.8C10.7372 0.8 11.1105 0.876666 11.4305 1.03C11.7505 1.17667 11.9939 1.38667 12.1605 1.66C12.3339 1.93333 12.4205 2.25667 12.4205 2.63C12.4205 3.07 12.3039 3.44667 12.0705 3.76C11.8439 4.06667 11.5305 4.27667 11.1305 4.39L11.1005 4.29C11.5805 4.39 11.9472 4.59333 12.2005 4.9C12.4539 5.20667 12.5805 5.59667 12.5805 6.07C12.5805 6.69 12.3705 7.18 11.9505 7.54C11.5305 7.89333 10.9605 8.07 10.2405 8.07ZM17.0766 8V1.91H17.3266L14.3666 6.18L14.3766 5.77H18.9766V6.45H13.7966V5.83L17.2266 0.88H17.8966V8H17.0766Z" fill="white"/>
</svg>
