<svg width="31" height="9" viewBox="0 0 31 9" fill="none" xmlns="http://www.w3.org/2000/svg">
<path d="M0.73 5.65V4.98H3.56V5.65H0.73ZM7.13711 7.63V1.36L7.60711 1.6L5.67711 2.83V2.04L7.49711 0.88H7.96711V7.63H7.13711ZM5.56711 8V7.31H9.53711V8H5.56711ZM13.2832 8.08C12.4699 8.08 11.8499 7.77333 11.4232 7.16C11.0032 6.54 10.7932 5.63333 10.7932 4.44C10.7932 3.24667 11.0032 2.34333 11.4232 1.73C11.8432 1.11 12.4632 0.8 13.2832 0.8C14.1032 0.8 14.7232 1.11 15.1432 1.73C15.5632 2.34333 15.7732 3.24333 15.7732 4.43C15.7732 5.62333 15.5599 6.53 15.1332 7.15C14.7132 7.77 14.0965 8.08 13.2832 8.08ZM13.2832 7.39C13.8499 7.39 14.2665 7.15 14.5332 6.67C14.8065 6.19 14.9432 5.44333 14.9432 4.43C14.9432 3.41667 14.8065 2.67667 14.5332 2.21C14.2665 1.73667 13.8499 1.5 13.2832 1.5C12.7165 1.5 12.2965 1.73667 12.0232 2.21C11.7565 2.68333 11.6232 3.42333 11.6232 4.43C11.6232 5.44333 11.7565 6.19 12.0232 6.67C12.2965 7.15 12.7165 7.39 13.2832 7.39ZM16.9193 6.97H17.9493V8H16.9193V6.97ZM16.9193 3.08H17.9493V4.12H16.9193V3.08ZM21.5938 8.08C20.7804 8.08 20.1604 7.77333 19.7338 7.16C19.3138 6.54 19.1038 5.63333 19.1038 4.44C19.1038 3.24667 19.3138 2.34333 19.7338 1.73C20.1538 1.11 20.7738 0.8 21.5938 0.8C22.4138 0.8 23.0338 1.11 23.4538 1.73C23.8738 2.34333 24.0838 3.24333 24.0838 4.43C24.0838 5.62333 23.8704 6.53 23.4438 7.15C23.0238 7.77 22.4071 8.08 21.5938 8.08ZM21.5938 7.39C22.1604 7.39 22.5771 7.15 22.8438 6.67C23.1171 6.19 23.2538 5.44333 23.2538 4.43C23.2538 3.41667 23.1171 2.67667 22.8438 2.21C22.5771 1.73667 22.1604 1.5 21.5938 1.5C21.0271 1.5 20.6071 1.73667 20.3338 2.21C20.0671 2.68333 19.9338 3.42333 19.9338 4.43C19.9338 5.44333 20.0671 6.19 20.3338 6.67C20.6071 7.15 21.0271 7.39 21.5938 7.39ZM27.5898 8.08C26.7765 8.08 26.1565 7.77333 25.7298 7.16C25.3098 6.54 25.0998 5.63333 25.0998 4.44C25.0998 3.24667 25.3098 2.34333 25.7298 1.73C26.1498 1.11 26.7698 0.8 27.5898 0.8C28.4098 0.8 29.0298 1.11 29.4498 1.73C29.8698 2.34333 30.0798 3.24333 30.0798 4.43C30.0798 5.62333 29.8665 6.53 29.4398 7.15C29.0198 7.77 28.4032 8.08 27.5898 8.08ZM27.5898 7.39C28.1565 7.39 28.5732 7.15 28.8398 6.67C29.1132 6.19 29.2498 5.44333 29.2498 4.43C29.2498 3.41667 29.1132 2.67667 28.8398 2.21C28.5732 1.73667 28.1565 1.5 27.5898 1.5C27.0232 1.5 26.6032 1.73667 26.3298 2.21C26.0632 2.68333 25.9298 3.42333 25.9298 4.43C25.9298 5.44333 26.0632 6.19 26.3298 6.67C26.6032 7.15 27.0232 7.39 27.5898 7.39Z" fill="white"/>
</svg>
